<?xml version="1.0" encoding="utf-8"?>
<!-- Generator: Adobe Illustrator 16.0.0, SVG Export Plug-In . SVG Version: 6.00 Build 0)  -->
<!DOCTYPE svg PUBLIC "-//W3C//DTD SVG 1.1//EN" "http://www.w3.org/Graphics/SVG/1.1/DTD/svg11.dtd">
<svg version="1.1" id="圖層_1" xmlns="http://www.w3.org/2000/svg" xmlns:xlink="http://www.w3.org/1999/xlink" x="0px" y="0px"
	 width="144px" height="95.667px" viewBox="0 0 144 95.667" enable-background="new 0 0 144 95.667" xml:space="preserve">
<g>
	<path fill="none" stroke="#78BF64" stroke-miterlimit="10" d="M22.518,62.091C56.768,66.291,51.931,4.896,71.021,4.45"/>
	<path fill="none" stroke="#7EC163" stroke-miterlimit="10" d="M27.212,62.104c34.199,3.977,25.89-55.546,41.646-55.762"/>
	<path fill="none" stroke="#83C361" stroke-miterlimit="10" d="M31.906,62.116C66.054,65.87,54.272,8.219,66.695,8.235"/>
	<path fill="none" stroke="#89C45F" stroke-miterlimit="10" d="M36.601,62.128c34.097,3.532,18.842-52.247,27.931-52.001"/>
	<path fill="none" stroke="#8EC65E" stroke-miterlimit="10" d="M41.295,62.141c34.045,3.309,15.318-50.598,21.074-50.12"/>
	<path fill="none" stroke="#94C85C" stroke-miterlimit="10" d="M45.989,62.153c33.993,3.087,11.795-48.948,14.216-48.239"/>
	<path fill="none" stroke="#99C95A" stroke-miterlimit="10" d="M50.684,62.166c33.941,2.864,8.271-47.299,7.358-46.359"/>
	<path fill="none" stroke="#9ECB58" stroke-miterlimit="10" d="M55.378,62.178c33.891,2.641,4.748-45.649,0.501-44.479"/>
	<path fill="none" stroke="#A3CD57" stroke-miterlimit="10" d="M60.072,62.19c33.839,2.42,1.224-44-6.356-42.599"/>
	<path fill="none" stroke="#A8CF55" stroke-miterlimit="10" d="M64.767,62.203c33.788,2.196-2.3-42.351-13.214-40.719"/>
	<path fill="none" stroke="#ADD053" stroke-miterlimit="10" d="M69.461,62.215c33.736,1.974-5.824-40.701-20.072-38.839"/>
	<path fill="none" stroke="#B1D251" stroke-miterlimit="10" d="M74.155,62.227c33.685,1.752-9.347-39.051-26.929-36.957"/>
	<path fill="none" stroke="#B6D44E" stroke-miterlimit="10" d="M78.85,62.24c33.634,1.529-12.871-37.402-33.787-35.077"/>
	<path fill="none" stroke="#BAD54C" stroke-miterlimit="10" d="M83.544,62.252c33.582,1.307-16.395-35.753-40.645-33.197"/>
	<path fill="none" stroke="#BED74A" stroke-miterlimit="10" d="M88.238,62.264c33.53,1.084-19.918-34.103-47.502-31.316"/>
	<path fill="none" stroke="#C3D847" stroke-miterlimit="10" d="M92.933,62.277c33.479,0.861-23.442-32.453-54.359-29.437"/>
	<path fill="none" stroke="#C7DA45" stroke-miterlimit="10" d="M97.627,62.29c33.428,0.639-26.966-30.804-61.217-27.557"/>
	<path fill="none" stroke="#CBDB42" stroke-miterlimit="10" d="M102.321,62.302c33.376,0.416-30.489-29.155-68.075-25.677"/>
	<path fill="none" stroke="#CFDD40" stroke-miterlimit="10" d="M107.016,62.314c33.325,0.194-34.013-27.505-74.932-23.795"/>
	<path fill="none" stroke="#D3DF3D" stroke-miterlimit="10" d="M111.71,62.327c33.273-0.029-37.536-25.855-81.79-21.915"/>
	<path fill="none" stroke="#D7E039" stroke-miterlimit="10" d="M116.404,62.338c33.222-0.251-41.061-24.206-88.647-20.034"/>
	<path fill="none" stroke="#DBE236" stroke-miterlimit="10" d="M121.099,62.351c33.171-0.474-44.584-22.556-95.505-18.154"/>
</g>
<text transform="matrix(1 0 0 1 11.8311 83.2593)" fill="#FFFFFF" font-family="'Mistral'" font-size="21.4042">Terry Plant World</text>
</svg>
